<svg xmlns="http://www.w3.org/2000/svg" x="0px" y="0px"
width="330" height="330"
viewBox="0 0 226 226"><g fill="none" fill-rule="nonzero" stroke="none" stroke-width="1" stroke-linecap="butt" stroke-linejoin="miter" stroke-miterlimit="10" stroke-dasharray="" stroke-dashoffset="0" font-family="none" font-weight="none" font-size="none" text-anchor="none" style="mix-blend-mode: normal"><path d="M0,226v-226h226v226z" fill="none"></path><g fill="#dc3545"><path d="M76.41625,9.04c-5.9325,0 -12.95969,0.95344 -18.78625,2.40125l-3.39,0.8475v36.58375l5.085,-0.565c4.21984,-0.47672 6.39156,-0.8475 8.05125,-0.8475c7.48625,0 11.03516,0.91813 14.125,3.6725c3.05453,2.71906 6.07375,8.38672 10.02875,18.22125c0.03531,0.08828 0.10594,0.05297 0.14125,0.14125l3.39,9.04l-58.4775,132.06875l-2.825,6.35625h47.88375l1.13,-2.825l32.06375,-77.97l18.78625,50.70875c3.77844,10.62906 8.475,18.50375 15.5375,23.58875c7.0625,5.085 15.97891,6.92125 27.12,6.92125c7.18609,0 14.79594,-0.68859 19.91625,-2.40125l3.1075,-1.13v-37.0075l-5.65,1.4125c-1.28891,0.31781 -4.41406,0.70625 -6.07375,0.70625c-4.97906,0 -7.69813,-0.67094 -9.605,-2.11875c-1.90688,-1.44781 -3.60188,-4.2375 -5.50875,-9.74625l-0.14125,-0.14125l-38.42,-102.12375c-7.98063,-21.1875 -14.35453,-34.92406 -23.165,-43.7875c-8.81047,-8.86344 -19.95156,-12.00625 -34.32375,-12.00625zM76.41625,18.08c13.18922,0 20.81672,2.26 27.82625,9.3225c7.00953,7.0625 13.34812,19.82797 21.1875,40.68l38.42,101.9825c0.01766,0.05297 -0.01766,0.08828 0,0.14125c2.15406,6.17969 4.71422,10.78797 8.7575,13.8425c4.07859,3.07219 9.11062,3.955 14.9725,3.955c0.91813,0 1.74797,-0.19422 2.68375,-0.2825v19.06875c-3.70781,0.79453 -8.77516,1.55375 -13.98375,1.55375c-10.11703,0 -16.86172,-1.60672 -21.89375,-5.22625c-5.03203,-3.61953 -8.82812,-9.64031 -12.28875,-19.35125l-21.7525,-58.76l-0.98875,-2.96625h-8.475l-1.13,2.825l-34.1825,83.055h-27.9675l56.35875,-127.4075l0.8475,-1.695l-0.70625,-1.695l-4.09625,-10.87625v-0.14125c-4.13156,-10.32891 -7.41563,-17.16187 -12.57125,-21.7525c-5.15563,-4.59063 -11.72375,-5.9325 -20.0575,-5.9325c-1.27125,0 -2.84266,0.2825 -4.09625,0.42375v-19.06875c4.39641,-0.8475 9.21656,-1.695 13.13625,-1.695z"></path></g></g></svg>